# 3ds Max Wavefront OBJ Exporter v0.97b - (c)2007 guruware
# File Created: 17.04.2018 10:54:44

mtllib InvertedCube.mtl

#
# object Box001
#

v  0.0000 0.0000 -0.0213
v  2.3476 0.0000 -0.0213
v  2.3476 0.0000 -2.4758
v  0.0000 0.0000 -2.4758
v  0.0000 1.3633 -0.0213
v  2.3476 1.3633 -0.0213
v  2.3476 1.3633 -2.4758
v  0.0000 1.3633 -2.4758
# 8 vertices

vn 0.5774 0.5774 -0.5774
vn -0.5774 0.5774 -0.5774
vn -0.5774 0.5774 0.5774
vn 0.5774 0.5774 0.5774
# 4 vertex normals

vt 1.0000 0.0000 0.0000
vt 0.0000 0.0000 0.0000
vt 0.0000 1.0000 0.0000
vt 1.0000 1.0000 0.0000
# 4 texture coords

o Box001
g Box001
usemtl wire_145028177
s 2
f 1/1/1 2/2/2 3/3/3 4/4/4 
s 4
f 5/2/1 6/1/2 7/4/3 8/3/4 
s 8
f 1/2/1 5/3/1 6/4/2 2/1/2 
s 16
f 2/2/2 6/3/2 7/4/3 3/1/3 
s 32
f 3/2/3 7/3/3 8/4/4 4/1/4 
s 64
f 4/2/4 8/3/4 5/4/1 1/1/1 
# 6 polygons

