# 3ds Max Wavefront OBJ Exporter v0.97b - (c)2007 guruware
# File Created: 22.04.2018 20:20:12

mtllib SlantedCube.mtl

#
# object default
#

v  -1.0000 -1.0000 -1.0000
v  3.0961 1.0000 -1.0000
v  1.0000 -1.0000 -1.0000
v  1.0961 1.0000 -1.0000
v  1.0961 1.0000 1.0000
v  -1.0000 -1.0000 1.0000
v  3.0961 1.0000 1.0000
v  1.0000 -1.0000 1.0000
# 8 vertices

vn 0.0000 0.0000 -1.0000
vn -1.0000 0.0000 0.0000
vn 0.0000 1.0000 0.0000
vn 1.0000 0.0000 0.0000
vn 0.0000 -1.0000 0.0000
vn 0.0000 0.0000 1.0000
# 6 vertex normals

vt 1.0000 0.0000 0.0000
vt 0.0000 1.0000 0.0000
vt 0.0000 0.0000 0.0000
vt 1.0000 1.0000 0.0000
# 4 texture coords

o default
g default
usemtl default
s 1
f 1/1/1 2/2/1 3/3/1 
f 1/1/1 4/4/1 2/2/1 
f 1/3/2 5/4/2 4/2/2 
f 1/3/2 6/1/2 5/4/2 
f 4/3/3 7/4/3 2/2/3 
f 4/3/3 5/1/3 7/4/3 
f 3/1/4 2/4/4 7/2/4 
f 3/1/4 7/2/4 8/3/4 
f 1/3/5 3/1/5 8/4/5 
f 1/3/5 8/4/5 6/2/5 
f 6/3/6 8/1/6 7/4/6 
f 6/3/6 7/4/6 5/2/6 
# 0 polygons - 12 triangles

